<svg width="64" height="64" viewBox="0 0 64 64" fill="none" xmlns="http://www.w3.org/2000/svg">
<path d="M47.6236 26.3325L46.959 25.1959C47.7366 24.724 48.4877 24.2588 49.1922 23.7935L49.9233 24.9101C49.1723 25.3554 48.4146 25.8539 47.6236 26.3325ZM52.0901 23.3947L51.3125 22.3113C52.2762 21.6467 53.1469 20.982 53.9046 20.3174L54.7886 21.3675C54.0043 21.9923 53.1004 22.6968 52.0901 23.3947ZM56.7427 19.4799L55.7856 18.5627C56.3692 17.9844 56.8682 17.3265 57.2678 16.6086L58.4509 17.2068C58.0086 18.0401 57.449 18.8056 56.7892 19.4799H56.7427ZM56.7959 14.8273C56.0449 14.5755 55.2543 14.4629 54.4629 14.495V13.1657C55.4365 13.129 56.4082 13.2755 57.3276 13.5977L56.7959 14.8273Z" fill="#494949"/>
<path d="M9.27997 40.5323C8.43862 40.554 7.5987 40.4509 6.78752 40.2266L7.17967 38.9571C8.17282 39.1992 9.1995 39.2733 10.2171 39.1764L10.2969 40.5057C9.95792 40.5257 9.6123 40.5323 9.27997 40.5323ZM13.0286 40.1933L12.8159 38.864C13.6202 38.7378 14.4842 38.5716 15.3881 38.3655L15.6806 39.6949C14.7501 39.8876 13.8594 40.0604 13.0286 40.1933ZM18.9308 38.864L18.5785 37.5813L20.5259 37.0163L20.9114 38.2858C20.2401 38.4918 19.5755 38.6846 18.9308 38.864ZM6.22921 37.7873L4.8999 37.568C5.13576 36.5867 5.62376 35.684 6.31562 34.9492L7.33254 35.8C6.80171 36.3578 6.42196 37.0418 6.22921 37.7873Z" fill="#494949"/>
<path d="M24.8926 39.3129L23.324 38.389C22.8979 38.1407 22.5591 37.7665 22.3544 37.3177C22.1497 36.869 22.0891 36.3679 22.1808 35.8833L22.5265 34.0887L40.4256 26.0198C41.0828 25.7281 41.8029 25.607 42.5193 25.6675L44.5731 25.8603C44.8384 25.8838 45.0927 25.9774 45.31 26.1316C45.5272 26.2857 45.6995 26.4949 45.8093 26.7376C45.9211 26.9802 45.9653 27.2484 45.9372 27.514C45.9092 27.7795 45.8098 28.0326 45.6498 28.2464L44.4335 29.9147C44.0051 30.4898 43.438 30.9472 42.7851 31.244L24.8926 39.3129ZM23.7162 35.0192L23.5102 36.1358C23.4697 36.3496 23.4958 36.5707 23.585 36.7692C23.6741 36.9676 23.822 37.134 24.0086 37.2458L24.9923 37.8174L42.2733 30.041C42.7198 29.8421 43.1069 29.5306 43.3966 29.137L44.6129 27.4687C44.6304 27.4433 44.6397 27.4132 44.6397 27.3823C44.6397 27.3515 44.6304 27.3214 44.6129 27.2959C44.6026 27.2665 44.5839 27.2407 44.5591 27.2218C44.5343 27.2029 44.5045 27.1917 44.4734 27.1896L42.4196 27.0035C41.9311 26.9562 41.4388 27.0363 40.9906 27.2361L23.7162 35.0192Z" fill="#494949"/>
<path d="M35.6601 46.1152L33.7393 33.8656L39.5683 31.207L40.1266 39.7213C40.2002 40.9774 39.8916 42.2264 39.2414 43.3037C38.5913 44.381 37.63 45.2361 36.4843 45.7563L35.6601 46.1152ZM35.2081 34.6566L36.6903 44.0947C37.3777 43.6189 37.9322 42.9753 38.3009 42.225C38.6697 41.4747 38.8405 40.6426 38.7973 39.8077L38.3918 33.2475L35.2081 34.6566Z" fill="#494949"/>
<path d="M39.1962 36.65C39.0413 36.6545 38.8898 36.6048 38.7677 36.5094C38.6456 36.4141 38.5607 36.279 38.5276 36.1277C38.4945 35.9763 38.5153 35.8182 38.5864 35.6806C38.6575 35.5429 38.7744 35.4345 38.917 35.3739L41.363 34.2706C41.4428 34.2343 41.529 34.2142 41.6167 34.2113C41.7043 34.2084 41.7917 34.2228 41.8738 34.2536C41.9559 34.2845 42.0311 34.3312 42.0951 34.3912C42.1591 34.4511 42.2107 34.523 42.2469 34.6029C42.2832 34.6828 42.3033 34.769 42.3062 34.8566C42.3091 34.9443 42.2947 35.0316 42.2639 35.1137C42.233 35.1958 42.1863 35.271 42.1264 35.335C42.0664 35.3991 41.9945 35.4507 41.9146 35.4869L39.462 36.5836C39.379 36.6239 39.2885 36.6466 39.1962 36.65Z" fill="#494949"/>
<path d="M37.6406 41.1781C37.4891 41.1775 37.3423 41.125 37.2247 41.0295C37.1071 40.934 37.0256 40.8011 36.9938 40.653C36.962 40.5048 36.9818 40.3503 37.0499 40.2149C37.1179 40.0795 37.2302 39.9715 37.3681 39.9087L40.9306 38.3002C41.0118 38.252 41.1022 38.2217 41.196 38.2112C41.2898 38.2007 41.3847 38.2102 41.4745 38.2393C41.5643 38.2683 41.6468 38.3161 41.7167 38.3795C41.7866 38.4429 41.8421 38.5205 41.8797 38.607C41.9173 38.6936 41.936 38.7871 41.9346 38.8815C41.9332 38.9758 41.9117 39.0688 41.8716 39.1542C41.8315 39.2396 41.7737 39.3155 41.702 39.3768C41.6303 39.4381 41.5463 39.4835 41.4557 39.5099L37.8865 41.1183C37.8091 41.1538 37.7257 41.1741 37.6406 41.1781Z" fill="#494949"/>
<path d="M26.4548 43.8044C26.1371 43.8067 25.8257 43.7152 25.5597 43.5414C25.2937 43.3676 25.0849 43.1192 24.9594 42.8273L24.2947 41.3319C24.0144 40.7063 23.9444 40.0066 24.0953 39.3379L24.3745 38.0817L29.4258 35.8086L28.0965 42.4551C28.0356 42.8033 27.8622 43.1218 27.6029 43.3619C27.3436 43.602 27.0126 43.7505 26.6609 43.7844C26.5931 43.7982 26.524 43.8049 26.4548 43.8044ZM25.5044 39.0388L25.3714 39.6436C25.2885 40.029 25.3353 40.4309 25.5044 40.7869L26.169 42.2823C26.195 42.3469 26.2418 42.4009 26.3021 42.4358C26.3623 42.4707 26.4324 42.4846 26.5013 42.4751C26.5717 42.4687 26.6379 42.4391 26.6897 42.391C26.7414 42.3428 26.7757 42.2789 26.7872 42.2092L27.6047 38.095L25.5044 39.0388Z" fill="#494949"/>
<path d="M32.4765 31.0685L24.5737 21.5174L25.3713 21.1585C26.5188 20.6457 27.7948 20.4925 29.031 20.7191C30.2673 20.9458 31.406 21.5415 32.297 22.428L38.2789 28.4098L32.4765 31.0685ZM26.7671 22.0823L32.8553 29.4401L35.9991 28.0111L31.3466 23.3585C30.754 22.775 30.0228 22.3518 29.2218 22.1286C28.4207 21.9053 27.576 21.8894 26.7671 22.0823Z" fill="#494949"/>
<path d="M34.5102 26.2502C34.3587 26.2496 34.212 26.1971 34.0943 26.1016C33.9767 26.0061 33.8952 25.8732 33.8634 25.7251C33.8316 25.5769 33.8514 25.4224 33.9195 25.287C33.9876 25.1516 34.0998 25.0436 34.2377 24.9808L36.6837 23.8774C36.7639 23.8351 36.852 23.8097 36.9425 23.8027C37.0329 23.7958 37.1239 23.8074 37.2097 23.8369C37.2955 23.8664 37.3743 23.9132 37.4414 23.9743C37.5084 24.0355 37.5622 24.1097 37.5995 24.1924C37.6368 24.2751 37.6567 24.3646 37.6581 24.4553C37.6595 24.5461 37.6423 24.6361 37.6075 24.7199C37.5728 24.8037 37.5212 24.8796 37.4561 24.9427C37.3909 25.0059 37.3135 25.055 37.2287 25.0871L34.8093 26.1904C34.7156 26.2333 34.6132 26.2538 34.5102 26.2502Z" fill="#494949"/>
<path d="M30.0837 24.4082C29.9294 24.411 29.779 24.3601 29.6581 24.2642C29.5373 24.1683 29.4536 24.0333 29.4214 23.8825C29.3892 23.7316 29.4104 23.5742 29.4816 23.4373C29.5527 23.3004 29.6692 23.1925 29.8112 23.1321L33.1344 21.6299C33.2957 21.5568 33.4795 21.5507 33.6453 21.613C33.811 21.6753 33.9453 21.801 34.0184 21.9623C34.0916 22.1236 34.0977 22.3073 34.0353 22.4731C33.973 22.6389 33.8474 22.7731 33.6861 22.8463L30.3628 24.3484C30.2752 24.3883 30.18 24.4087 30.0837 24.4082Z" fill="#494949"/>
<path d="M23.0982 35.3211L21.9749 34.6565C21.3862 34.3246 20.9201 33.8119 20.6456 33.1943L19.981 31.6988C19.8345 31.3784 19.794 31.0197 19.8655 30.6747C19.9369 30.3298 20.1166 30.0166 20.3783 29.7808C20.6401 29.5451 20.9702 29.3989 21.3207 29.3637C21.6712 29.3286 22.0238 29.4061 22.3272 29.5852L28.1629 33.0148L23.0982 35.3211ZM21.4565 30.6686C21.3746 30.672 21.2966 30.7051 21.2372 30.7616C21.1842 30.8073 21.1477 30.8691 21.1333 30.9376C21.1189 31.006 21.1273 31.0773 21.1574 31.1405L21.8221 32.6359C21.9847 32.993 22.2572 33.2887 22.5997 33.4801L23.1447 33.7791L25.2384 32.8353L21.6094 30.7217C21.5643 30.6903 21.5114 30.6719 21.4565 30.6686Z" fill="#494949"/>
<path d="M42.0608 29.7388C41.9322 29.7379 41.8066 29.6998 41.6993 29.629C41.5919 29.5582 41.5074 29.4578 41.456 29.34L40.9774 28.2765C40.9043 28.1161 40.8978 27.9332 40.9595 27.7681C41.0212 27.6029 41.146 27.469 41.3064 27.3959C41.4668 27.3227 41.6497 27.3163 41.8149 27.378C41.98 27.4397 42.1139 27.5645 42.1871 27.7249L42.6656 28.795C42.7376 28.9554 42.743 29.1378 42.6807 29.3023C42.6184 29.4667 42.4935 29.5998 42.3333 29.6723C42.2482 29.7136 42.1553 29.7363 42.0608 29.7388Z" fill="#494949"/>
<path d="M9.59909 38.9387C9.44816 38.9434 9.30009 38.8967 9.17928 38.8061C9.05847 38.7154 8.97212 38.5864 8.93444 38.4402C7.95177 34.6092 7.85876 30.6041 8.66254 26.7316C9.46631 22.8591 11.1456 19.2219 13.5717 16.0985C15.9979 12.975 19.1066 10.4481 22.6598 8.71132C26.2131 6.9745 30.1166 6.07378 34.0717 6.07814C38.3398 6.07655 42.5423 7.12891 46.306 9.14178C50.0697 11.1546 53.2781 14.0657 55.6463 17.6165C55.6948 17.6894 55.7284 17.7711 55.7453 17.857C55.7621 17.9429 55.7619 18.0312 55.7446 18.117C55.7274 18.2028 55.6933 18.2844 55.6445 18.357C55.5957 18.4296 55.5331 18.492 55.4602 18.5404C55.3874 18.5889 55.3056 18.6225 55.2198 18.6393C55.1339 18.6562 55.0456 18.656 54.9598 18.6387C54.874 18.6214 54.7924 18.5874 54.7198 18.5386C54.6471 18.4898 54.5848 18.4272 54.5364 18.3543C51.327 13.4916 46.4953 9.92624 40.9024 8.29366C35.3094 6.66107 29.3185 7.06727 23.9971 9.43987C18.6757 11.8125 14.3695 15.9974 11.8458 21.2488C9.32221 26.5003 8.74506 32.4772 10.2172 38.1145C10.2596 38.2845 10.2331 38.4645 10.1435 38.6151C10.0539 38.7657 9.90836 38.8748 9.73867 38.9187L9.59909 38.9387Z" fill="#494949"/>
<path d="M34.0715 57.9195C28.8965 57.9357 23.8361 56.3954 19.5478 53.4986C15.2594 50.6017 11.9413 46.4823 10.0243 41.6754C9.98283 41.5931 9.9589 41.5031 9.95405 41.4111C9.94919 41.3191 9.96352 41.2271 9.99611 41.141C10.0287 41.0548 10.0789 40.9763 10.1434 40.9106C10.2079 40.8448 10.2854 40.7932 10.3709 40.759C10.4565 40.7248 10.5482 40.7087 10.6403 40.7118C10.7323 40.7149 10.8228 40.7372 10.9058 40.7771C10.9888 40.817 11.0626 40.8738 11.1226 40.9437C11.1825 41.0137 11.2272 41.0954 11.2539 41.1835C12.5067 44.226 14.3573 46.9861 16.6961 49.3004C19.0348 51.6147 21.8142 53.4362 24.8697 54.657C27.9251 55.8777 31.1945 56.4729 34.4841 56.4073C37.7737 56.3417 41.0167 55.6166 44.0211 54.2751C47.0254 52.9335 49.73 51.0026 51.9747 48.5969C54.2193 46.1912 55.9584 43.3595 57.0889 40.2695C58.2193 37.1795 58.7183 33.8941 58.5561 30.6078C58.3939 27.3215 57.5739 24.1012 56.1447 21.1376C56.0985 21.0587 56.069 20.9712 56.0581 20.8805C56.0472 20.7897 56.0552 20.6977 56.0815 20.6102C56.1078 20.5227 56.1518 20.4415 56.2109 20.3718C56.27 20.302 56.3428 20.2452 56.4248 20.2049C56.5068 20.1646 56.5963 20.1416 56.6876 20.1374C56.7789 20.1332 56.87 20.1479 56.9554 20.1805C57.0408 20.2132 57.1185 20.2631 57.1837 20.3271C57.2489 20.3911 57.3002 20.4679 57.3344 20.5527C59.0962 24.1103 60.0085 28.0281 59.9997 31.998C59.9997 35.4026 59.329 38.7739 58.0259 41.9193C56.7228 45.0647 54.8128 47.9225 52.4051 50.3296C49.9973 52.7368 47.139 54.646 43.9933 55.9483C40.8476 57.2506 37.4761 57.9204 34.0715 57.9195Z" fill="#494949"/>
<path d="M12.5234 38.6463C12.3796 38.6463 12.2397 38.5997 12.1246 38.5134C9.52585 36.5859 8.13672 34.3327 8.13672 31.9998C8.13672 27.0681 14.0189 22.8143 23.4902 20.9067C23.662 20.8734 23.84 20.9091 23.9856 21.0062C24.1312 21.1032 24.2326 21.2538 24.2679 21.4251C24.2854 21.5107 24.2858 21.5988 24.2692 21.6845C24.2526 21.7703 24.2193 21.8519 24.1711 21.9247C24.123 21.9975 24.061 22.0602 23.9886 22.109C23.9163 22.1579 23.835 22.192 23.7495 22.2094C15.0824 23.9641 9.47932 27.8058 9.47932 31.9998C9.47932 33.8941 10.6691 35.7817 12.9156 37.4433C12.9859 37.4952 13.0453 37.5604 13.0904 37.6353C13.1355 37.7102 13.1654 37.7932 13.1784 37.8796C13.1913 37.9661 13.1871 38.0542 13.166 38.139C13.1448 38.2238 13.1072 38.3036 13.0552 38.3738C12.994 38.4576 12.914 38.5259 12.8216 38.5732C12.7293 38.6205 12.6272 38.6456 12.5234 38.6463Z" fill="#494949"/>
<path d="M49.0328 23.4338C48.9629 23.4324 48.8935 23.4213 48.8267 23.4006C44.0553 21.8935 39.0749 21.1532 34.0714 21.2072C33.8951 21.2072 33.7261 21.1372 33.6014 21.0125C33.4768 20.8879 33.4067 20.7188 33.4067 20.5425C33.4067 20.3663 33.4768 20.1972 33.6014 20.0726C33.7261 19.9479 33.8951 19.8779 34.0714 19.8779C39.2172 19.8217 44.3393 20.5845 49.2455 22.1377C49.396 22.1872 49.524 22.2889 49.6062 22.4244C49.6884 22.5599 49.7195 22.7204 49.6939 22.8768C49.6682 23.0332 49.5875 23.1753 49.4662 23.2775C49.345 23.3796 49.1913 23.435 49.0328 23.4338Z" fill="#494949"/>
<path d="M41.0374 43.6922C40.9501 43.6979 40.8626 43.6863 40.7797 43.6581C40.6969 43.63 40.6205 43.5858 40.5548 43.5281C40.422 43.4115 40.341 43.247 40.3295 43.0707C40.3181 42.8945 40.3771 42.7209 40.4937 42.5881C40.6102 42.4554 40.7747 42.3743 40.951 42.3629C51.3861 41.0336 58.6707 36.7466 58.6707 32.0009C58.6707 29.3423 56.4042 26.8033 52.2833 24.7894C52.1429 24.703 52.0395 24.5675 51.9934 24.4092C51.9472 24.2509 51.9616 24.081 52.0337 23.9327C52.1058 23.7844 52.2305 23.6682 52.3835 23.6066C52.5365 23.5451 52.7069 23.5426 52.8616 23.5997C57.4676 25.8529 60 28.8305 60 32.0009C60 37.5176 52.4163 42.2167 41.1238 43.6789L41.0374 43.6922Z" fill="#494949"/>
<path d="M34.0717 44.1208C33.0747 44.1208 30.6089 44.041 29.1001 43.8948C29.0128 43.8865 28.928 43.8611 28.8506 43.82C28.7731 43.779 28.7045 43.7231 28.6486 43.6555C28.5928 43.5879 28.5508 43.51 28.525 43.4262C28.4993 43.3424 28.4903 43.2543 28.4986 43.167C28.5069 43.0797 28.5323 42.9949 28.5734 42.9175C28.6144 42.84 28.6703 42.7714 28.7379 42.7155C28.8055 42.6597 28.8834 42.6177 28.9672 42.5919C29.051 42.5662 29.1391 42.5572 29.2264 42.5655C30.6886 42.7051 33.1146 42.7649 34.085 42.7848C34.2613 42.7848 34.4304 42.8549 34.555 42.9795C34.6796 43.1041 34.7497 43.2732 34.7497 43.4495C34.7497 43.6258 34.6796 43.7948 34.555 43.9195C34.4304 44.0441 34.2613 44.1141 34.085 44.1141L34.0717 44.1208Z" fill="#494949"/>
<path d="M23.5833 43.0985H23.4437C21.0871 42.6263 18.7829 41.9228 16.5645 40.9982C16.4814 40.9655 16.4058 40.9163 16.3422 40.8537C16.2785 40.7911 16.2281 40.7164 16.194 40.6339C16.1599 40.5513 16.1427 40.4628 16.1436 40.3735C16.1444 40.2843 16.1633 40.1961 16.1989 40.1142C16.233 40.0332 16.2828 39.9597 16.3455 39.898C16.4082 39.8363 16.4825 39.7877 16.5641 39.7549C16.6457 39.7221 16.733 39.7059 16.8209 39.7071C16.9088 39.7083 16.9956 39.727 17.0763 39.762C19.22 40.6461 21.4465 41.314 23.7228 41.7559C23.8101 41.7647 23.8948 41.7905 23.9721 41.832C24.0494 41.8734 24.1178 41.9297 24.1733 41.9976C24.2289 42.0655 24.2705 42.1437 24.2959 42.2276C24.3212 42.3116 24.3297 42.3998 24.321 42.487C24.3123 42.5743 24.2865 42.659 24.245 42.7363C24.2035 42.8136 24.1472 42.882 24.0793 42.9376C24.0115 42.9931 23.9333 43.0347 23.8493 43.0601C23.7653 43.0854 23.6772 43.094 23.5899 43.0852L23.5833 43.0985Z" fill="#494949"/>
<path d="M22.726 29.1018H22.6794C22.5921 29.0959 22.5067 29.0728 22.4283 29.0338C22.3499 28.9948 22.28 28.9407 22.2226 28.8746C22.1651 28.8085 22.1213 28.7318 22.0936 28.6487C22.066 28.5656 22.055 28.4779 22.0613 28.3906C22.8921 15.463 27.9435 6.07812 34.0716 6.07812C39.462 6.07812 44.1145 13.3893 45.6632 24.3096C45.6879 24.4859 45.6415 24.6647 45.5343 24.8068C45.4271 24.9489 45.2679 25.0426 45.0916 25.0673C45.0043 25.0795 44.9155 25.0744 44.8301 25.0523C44.7448 25.0302 44.6647 24.9915 44.5943 24.9384C44.4523 24.8312 44.3586 24.672 44.3339 24.4957C42.9115 14.4328 38.6843 7.40743 34.0716 7.40743C28.7544 7.40743 24.1749 16.4667 23.384 28.477C23.3739 28.6451 23.3003 28.8031 23.1782 28.9191C23.056 29.0351 22.8944 29.1004 22.726 29.1018Z" fill="#494949"/>
<path d="M34.0717 57.9221C29.0935 57.9221 24.8397 52.0466 22.9321 42.5686C22.8969 42.3923 22.9331 42.2093 23.0328 42.0597C23.1325 41.9101 23.2876 41.8063 23.4638 41.771C23.6401 41.7358 23.8232 41.772 23.9728 41.8717C24.1223 41.9714 24.2262 42.1265 24.2614 42.3027C25.9696 50.9898 29.8312 56.5928 34.0717 56.5928C39.9273 56.5928 44.8723 45.3336 44.8723 32.0006C44.8723 31.8243 44.9424 31.6553 45.067 31.5306C45.1917 31.406 45.3607 31.3359 45.537 31.3359C45.7133 31.3359 45.8823 31.406 46.007 31.5306C46.1316 31.6553 46.2017 31.8243 46.2017 32.0006C46.2017 46.5432 40.8778 57.9221 34.0717 57.9221Z" fill="#494949"/>
<path d="M59.335 32.6652H45.5367C45.3604 32.6652 45.1914 32.5952 45.0667 32.4706C44.9421 32.3459 44.8721 32.1769 44.8721 32.0006C44.8721 31.8243 44.9421 31.6553 45.0667 31.5306C45.1914 31.406 45.3604 31.3359 45.5367 31.3359H59.335C59.5112 31.3359 59.6803 31.406 59.8049 31.5306C59.9296 31.6553 59.9996 31.8243 59.9996 32.0006C59.9996 32.1769 59.9296 32.3459 59.8049 32.4706C59.6803 32.5952 59.5112 32.6652 59.335 32.6652Z" fill="#494949"/>
<path d="M18.698 32.6652H8.81456C8.63828 32.6652 8.46922 32.5952 8.34458 32.4706C8.21993 32.3459 8.1499 32.1769 8.1499 32.0006C8.1499 31.8243 8.21993 31.6553 8.34458 31.5306C8.46922 31.406 8.63828 31.3359 8.81456 31.3359H18.698C18.8742 31.3359 19.0433 31.406 19.1679 31.5306C19.2926 31.6553 19.3626 31.8243 19.3626 32.0006C19.3626 32.1769 19.2926 32.3459 19.1679 32.4706C19.0433 32.5952 18.8742 32.6652 18.698 32.6652Z" fill="#494949"/>
<path d="M34.0714 57.9205C33.8951 57.9205 33.7261 57.8505 33.6014 57.7258C33.4768 57.6012 33.4067 57.4321 33.4067 57.2558V43.4576C33.4067 43.2813 33.4768 43.1123 33.6014 42.9876C33.7261 42.863 33.8951 42.793 34.0714 42.793C34.2477 42.793 34.4167 42.863 34.5414 42.9876C34.666 43.1123 34.736 43.2813 34.736 43.4576V57.2558C34.736 57.4321 34.666 57.6012 34.5414 57.7258C34.4167 57.8505 34.2477 57.9205 34.0714 57.9205Z" fill="#494949"/>
<path d="M34.0714 21.2057C33.8951 21.2057 33.7261 21.1356 33.6014 21.011C33.4768 20.8863 33.4067 20.7173 33.4067 20.541V6.74278C33.4067 6.5665 33.4768 6.39744 33.6014 6.2728C33.7261 6.14815 33.8951 6.07812 34.0714 6.07812C34.2477 6.07812 34.4167 6.14815 34.5414 6.2728C34.666 6.39744 34.736 6.5665 34.736 6.74278V20.541C34.736 20.7173 34.666 20.8863 34.5414 21.011C34.4167 21.1356 34.2477 21.2057 34.0714 21.2057Z" fill="#494949"/>
</svg>
