<svg width="65" height="64" viewBox="0 0 65 64" fill="none" xmlns="http://www.w3.org/2000/svg">
<path d="M56.646 34.4842C56.4643 34.4842 56.2899 34.412 56.1614 34.2835C56.0329 34.1549 55.9606 33.9806 55.9606 33.7988V25.0465H52.568V33.7988C52.568 33.9806 52.4958 34.1549 52.3673 34.2835C52.2387 34.412 52.0644 34.4842 51.8826 34.4842C51.7009 34.4842 51.5265 34.412 51.398 34.2835C51.2695 34.1549 51.1973 33.9806 51.1973 33.7988V24.3612C51.1973 24.1794 51.2695 24.0051 51.398 23.8765C51.5265 23.748 51.7009 23.6758 51.8826 23.6758H56.646C56.8278 23.6758 57.0021 23.748 57.1307 23.8765C57.2592 24.0051 57.3314 24.1794 57.3314 24.3612V33.7988C57.3314 33.9806 57.2592 34.1549 57.1307 34.2835C57.0021 34.412 56.8278 34.4842 56.646 34.4842Z" fill="#494949"/>
<path d="M54.2541 40.8504C54.1585 40.8502 54.064 40.83 53.9766 40.791C53.8893 40.7521 53.811 40.6953 53.747 40.6243L46.8041 33.0508C46.7157 32.953 46.6575 32.8317 46.6363 32.7015C46.6152 32.5714 46.632 32.4379 46.6848 32.3171C46.7376 32.1962 46.8242 32.0932 46.9341 32.0204C47.044 31.9475 47.1726 31.9079 47.3044 31.9062H50.087C50.2688 31.9062 50.4431 31.9785 50.5717 32.107C50.7002 32.2355 50.7724 32.4099 50.7724 32.5916C50.7724 32.7734 50.7002 32.9477 50.5717 33.0763C50.4431 33.2048 50.2688 33.277 50.087 33.277H48.8671L54.2541 39.1507L59.6344 33.277H58.4144C58.2326 33.277 58.0583 33.2048 57.9297 33.0763C57.8012 32.9477 57.729 32.7734 57.729 32.5916C57.729 32.4099 57.8012 32.2355 57.9297 32.107C58.0583 31.9785 58.2326 31.9062 58.4144 31.9062H61.197C61.3289 31.9079 61.4575 31.9475 61.5673 32.0204C61.6772 32.0932 61.7638 32.1962 61.8166 32.3171C61.8694 32.4379 61.8862 32.5714 61.8651 32.7015C61.8439 32.8317 61.7857 32.953 61.6974 33.0508L54.7545 40.6243C54.6912 40.6944 54.614 40.7507 54.5279 40.7896C54.4418 40.8286 54.3486 40.8493 54.2541 40.8504Z" fill="#494949"/>
<path d="M12.4941 40.8495H7.76497C7.58319 40.8495 7.40887 40.7773 7.28033 40.6487C7.1518 40.5202 7.07959 40.3459 7.07959 40.1641V30.7127C7.07959 30.5309 7.1518 30.3566 7.28033 30.2281C7.40887 30.0996 7.58319 30.0273 7.76497 30.0273C7.94674 30.0273 8.12107 30.0996 8.2496 30.2281C8.37814 30.3566 8.45035 30.5309 8.45035 30.7127V39.4787H11.8087V30.7127C11.8087 30.5309 11.8809 30.3566 12.0094 30.2281C12.138 30.0996 12.3123 30.0273 12.4941 30.0273C12.6759 30.0273 12.8502 30.0996 12.9787 30.2281C13.1073 30.3566 13.1795 30.5309 13.1795 30.7127V40.1641C13.1795 40.3459 13.1073 40.5202 12.9787 40.6487C12.8502 40.7773 12.6759 40.8495 12.4941 40.8495Z" fill="#494949"/>
<path d="M17.0722 32.6172H14.2965C14.1147 32.6172 13.9404 32.545 13.8118 32.4165C13.6833 32.288 13.6111 32.1136 13.6111 31.9318C13.6111 31.7501 13.6833 31.5757 13.8118 31.4472C13.9404 31.3187 14.1147 31.2465 14.2965 31.2465H15.5233L10.1362 25.3728L4.74228 31.2465H5.96226C6.14403 31.2465 6.31836 31.3187 6.44689 31.4472C6.57543 31.5757 6.64764 31.7501 6.64764 31.9318C6.64764 32.1136 6.57543 32.288 6.44689 32.4165C6.31836 32.545 6.14403 32.6172 5.96226 32.6172H3.18647C3.05271 32.6177 2.92173 32.579 2.80969 32.5059C2.69764 32.4329 2.60943 32.3286 2.55592 32.206C2.50373 32.0849 2.48761 31.9512 2.5095 31.8211C2.53138 31.6911 2.59034 31.5701 2.67929 31.4726L9.62218 23.8924C9.68642 23.8217 9.76472 23.7652 9.85206 23.7266C9.9394 23.6879 10.0339 23.668 10.1294 23.668C10.2249 23.668 10.3193 23.6879 10.4067 23.7266C10.494 23.7652 10.5723 23.8217 10.6365 23.8924L17.5794 31.4726C17.6684 31.5701 17.7273 31.6911 17.7492 31.8211C17.7711 31.9512 17.755 32.0849 17.7028 32.206C17.6493 32.3286 17.5611 32.4329 17.449 32.5059C17.337 32.579 17.206 32.6177 17.0722 32.6172Z" fill="#494949"/>
<path d="M12.9119 24.716C12.7421 24.7156 12.5784 24.6521 12.4527 24.5379L10.4925 22.749C10.3851 22.6505 10.3119 22.5203 10.2836 22.3773C10.2552 22.2343 10.2732 22.086 10.3349 21.954C12.2841 17.8237 15.3637 14.3304 19.217 11.8787C23.0702 9.42709 27.5393 8.11749 32.1063 8.10171C36.6734 8.08593 41.1514 9.36461 45.0215 11.7896C48.8916 14.2146 51.9953 17.6865 53.973 21.8032C54.0223 21.8997 54.048 22.0066 54.048 22.115C54.048 22.2235 54.0223 22.3303 53.973 22.4269C53.9217 22.5228 53.8484 22.6052 53.759 22.6671C53.6696 22.7291 53.5667 22.7689 53.4589 22.7833L50.7928 23.1191C50.656 23.1355 50.5174 23.1103 50.3951 23.0467C50.2729 22.9831 50.1726 22.8841 50.1074 22.7627C48.3133 19.383 45.5991 16.5803 42.2788 14.6787C38.9584 12.7771 35.1675 11.8543 31.3446 12.017C27.5217 12.1798 23.823 13.4214 20.6763 15.5984C17.5296 17.7753 15.0634 20.7986 13.563 24.3185C13.5195 24.4188 13.4526 24.5072 13.368 24.5763C13.2833 24.6455 13.1833 24.6934 13.0764 24.716C13.0219 24.7249 12.9664 24.7249 12.9119 24.716ZM11.7948 22.0842L12.6789 22.8929C14.3957 19.3243 17.0587 16.2951 20.3779 14.1352C23.6971 11.9752 27.5453 10.7672 31.5034 10.6428C35.4616 10.5184 39.378 11.4824 42.8263 13.4296C46.2746 15.3769 49.1226 18.2329 51.0601 21.6867L52.2938 21.529C50.3228 17.8391 47.3746 14.7625 43.7721 12.636C40.1695 10.5094 36.0514 9.41494 31.8684 9.47226C27.6854 9.52958 23.5988 10.7365 20.0559 12.961C16.5129 15.1854 13.6502 18.3416 11.781 22.0842H11.7948Z" fill="#494949"/>
<path d="M32.1916 56.4293C27.6409 56.4128 23.1862 55.1192 19.3344 52.6959C15.4825 50.2726 12.3882 46.8168 10.4034 42.7217C10.3557 42.6235 10.3321 42.5152 10.3347 42.406C10.3372 42.2968 10.3659 42.1898 10.4182 42.0939C10.4705 41.998 10.5449 41.916 10.6354 41.8547C10.7258 41.7934 10.8296 41.7546 10.938 41.7416L13.5973 41.4058C13.7341 41.3894 13.8727 41.4146 13.995 41.4782C14.1172 41.5418 14.2175 41.6407 14.2827 41.7622C16.0768 45.1418 18.791 47.9446 22.1113 49.8462C25.4317 51.7478 29.2226 52.6706 33.0455 52.5078C36.8684 52.3451 40.5671 51.1034 43.7138 48.9265C46.8605 46.7496 49.3267 43.7263 50.8271 40.2064C50.8706 40.1061 50.9375 40.0177 51.0221 39.9485C51.1068 39.8794 51.2068 39.8315 51.3137 39.8088C51.4211 39.7853 51.5326 39.788 51.6388 39.8166C51.7449 39.8452 51.8427 39.899 51.9237 39.9733L53.9044 41.7759C54.0118 41.8744 54.085 42.0046 54.1134 42.1476C54.1417 42.2906 54.1237 42.4389 54.0621 42.5709C52.0952 46.7088 48.9979 50.2058 45.1279 52.6581C41.2579 55.1103 36.7731 56.4177 32.1916 56.4293ZM12.0963 42.9958C14.0673 46.6858 17.0155 49.7624 20.618 51.8889C24.2206 54.0154 28.3387 55.1099 32.5217 55.0526C36.7047 54.9953 40.7913 53.7884 44.3342 51.5639C47.8772 49.3395 50.7399 46.1832 52.6091 42.4407L51.7249 41.6319C50.0081 45.2006 47.3451 48.2298 44.0259 50.3897C40.7067 52.5497 36.8585 53.7576 32.9004 53.882C28.9422 54.0064 25.0258 53.0425 21.5775 51.0953C18.1292 49.148 15.2812 46.292 13.3437 42.8382L12.0963 42.9958Z" fill="#494949"/>
<path d="M48.7644 30.1578C48.6556 29.2881 48.4768 28.4286 48.2298 27.5876L49.5457 27.2038C49.813 28.1141 50.0055 29.0448 50.1214 29.9864L48.7644 30.1578ZM16.4145 26.7309L15.126 26.2785C15.4368 25.381 15.8196 24.51 16.2706 23.6741L17.4768 24.3252C17.0621 25.106 16.707 25.9171 16.4145 26.7515V26.7309ZM47.2977 25.1065C46.9221 24.3125 46.4844 23.5493 45.9886 22.8242L47.1195 22.0498C47.6581 22.8422 48.1325 23.6764 48.5382 24.5445L47.2977 25.1065ZM18.9093 22.132L17.8195 21.3027C18.3934 20.5461 19.0284 19.8378 19.718 19.1849L20.6638 20.1718C20.029 20.7787 19.4423 21.434 18.9093 22.132ZM44.3094 20.7955C43.7147 20.1695 43.0732 19.5899 42.3903 19.0615L43.2265 17.9786C43.9797 18.5591 44.6855 19.1985 45.3375 19.8908L44.3094 20.7955ZM22.6994 18.5132L21.9249 17.3823C22.7061 16.8428 23.5289 16.3661 24.3854 15.9567L24.9749 17.1904C24.183 17.5712 23.4221 18.0134 22.6994 18.5132ZM40.1971 17.5948C39.4277 17.1723 38.6255 16.8124 37.7983 16.5187L38.2575 15.2234C39.1516 15.5455 40.02 15.935 40.8551 16.3885L40.1971 17.5948ZM27.4422 16.224L27.0379 14.9492C27.95 14.6752 28.8829 14.4758 29.8273 14.3529L30.0055 15.7237C29.134 15.8281 28.2722 16.0023 27.4285 16.2446L27.4422 16.224ZM35.2624 15.8128C34.402 15.6626 33.5312 15.5801 32.658 15.5661V14.1953C33.6079 14.2174 34.5545 14.316 35.4886 14.49L35.2624 15.8128Z" fill="#494949"/>
<path d="M32.1916 50.3362C31.546 50.3363 30.9008 50.302 30.2589 50.2334L30.4028 48.8626C31.2768 48.9562 32.1567 48.9814 33.0346 48.938L33.1032 50.3088C32.8016 50.3293 32.4932 50.3362 32.1916 50.3362ZM35.9269 49.9524L35.6459 48.5816C36.4949 48.4007 37.3289 48.1555 38.1407 47.8483L38.6273 49.1231C37.7502 49.4696 36.8474 49.7469 35.9269 49.9524ZM27.4625 49.7125C26.5448 49.4657 25.6485 49.1448 24.7827 48.753L25.3447 47.5056C26.1448 47.8652 26.9721 48.1608 27.8189 48.3897L27.4625 49.7125ZM41.2249 47.9168L40.5395 46.7311C41.2991 46.2925 42.0233 45.7953 42.7053 45.2438L43.5689 46.3061C42.8319 46.9049 42.0481 47.4435 41.2249 47.9168ZM22.2879 47.3822C21.492 46.8647 20.7401 46.2824 20.0399 45.6413L20.9583 44.627C21.6011 45.2161 22.2885 45.7546 23.0144 46.2376L22.2879 47.3822ZM45.6319 44.346L44.6107 43.4276C45.1995 42.7862 45.7358 42.0986 46.2145 41.3714L47.3659 42.1185C46.8477 42.9057 46.2679 43.6505 45.6319 44.346ZM18.0865 43.5715C17.4937 42.8268 16.9576 42.0387 16.4828 41.2138L17.6753 40.5284C18.1087 41.2939 18.6038 42.0229 19.1557 42.7079L18.0865 43.5715ZM48.723 39.5826L47.4687 39.0274C47.7843 38.3157 48.05 37.5829 48.2638 36.8342L49.5797 37.2043C49.3496 38.016 49.0633 38.8106 48.723 39.5826ZM15.2765 38.6368C14.9388 37.7456 14.6729 36.8288 14.4814 35.8952L15.8522 35.6211C16.0317 36.4816 16.2768 37.3271 16.5856 38.1501L15.2765 38.6368Z" fill="#494949"/>
<path d="M22.48 38.9363V37.8603L23.8507 36.4895C27.2159 33.2888 28.7375 31.589 28.7512 29.6014C28.7512 28.265 28.1069 27.0313 26.1399 27.0313C25.1089 27.0699 24.1231 27.4647 23.3504 28.1484L22.7815 26.8942C23.8224 26.0094 25.1439 25.5235 26.51 25.5234C29.3406 25.5234 30.54 27.4699 30.54 29.3547C30.54 31.7809 28.7718 33.748 26.0028 36.421L24.9473 37.3942V37.4353H30.8622V38.9363H22.48Z" fill="#494949"/>
<path d="M38.3807 38.9385V35.3677H32.2671V34.1957L38.1408 25.793H40.0598V33.9764H41.9035V35.3471H40.0598V38.9385H38.3807ZM38.3807 33.9627V29.5831C38.3807 28.8977 38.3807 28.2124 38.4424 27.527H38.3807C37.9763 28.2946 37.6473 28.8977 37.2841 29.4735L34.0628 33.949V33.9901L38.3807 33.9627Z" fill="#494949"/>
</svg>
