<svg width="65" height="64" viewBox="0 0 65 64" fill="none" xmlns="http://www.w3.org/2000/svg">
<g clip-path="url(#clip0_4857_77325)">
<path d="M32.0742 39.6852L19.0646 21.0183C18.5509 20.2093 18.3698 19.233 18.559 18.2934C18.7483 17.3539 19.2933 16.5239 20.0802 15.9768C20.8671 15.4297 21.8349 15.2079 22.7816 15.3577C23.7282 15.5075 24.5802 16.0174 25.1598 16.7807L32.2225 26.9087L48.5657 4.4915C49.0009 3.90896 49.5976 3.46696 50.2816 3.22028C50.9657 2.97361 51.7071 2.93311 52.4139 3.10381C53.1208 3.2745 53.762 3.64889 54.258 4.18056C54.7541 4.71222 55.0833 5.37779 55.2047 6.09475C55.2815 6.57722 55.2624 7.0701 55.1485 7.54517C55.0346 8.02025 54.8281 8.46819 54.5408 8.86335L32.0742 39.6852ZM22.1087 16.5971C21.6876 16.5955 21.2742 16.7098 20.9138 16.9275C20.5533 17.1451 20.2597 17.4577 20.065 17.8311C19.8703 18.2044 19.782 18.6241 19.8099 19.0443C19.8377 19.4644 19.9806 19.8688 20.2229 20.2132L32.1024 37.2697L53.3966 8.02994C53.5752 7.78666 53.7035 7.51016 53.7738 7.21666C53.8442 6.92316 53.8552 6.61857 53.8063 6.32076C53.7622 6.02117 53.6581 5.73355 53.5004 5.47507C53.3426 5.2166 53.1344 4.99257 52.8881 4.81639C52.6483 4.63021 52.3731 4.49475 52.0793 4.41826C51.7854 4.34177 51.4791 4.32584 51.1789 4.37144C50.5758 4.4666 50.0349 4.79672 49.6746 5.2896L32.1872 29.3029L24.0015 17.5788C23.8292 17.3307 23.6094 17.1193 23.3548 16.9568C23.1002 16.7944 22.8159 16.6841 22.5183 16.6324C22.3833 16.6066 22.246 16.5948 22.1087 16.5971Z" fill="#3F3B3C"/>
<path d="M40.3443 48.1038H28.2105C28.0231 48.1038 27.8435 48.0294 27.7111 47.897C27.5786 47.7645 27.5042 47.5849 27.5042 47.3976C27.5042 47.2102 27.5786 47.0306 27.7111 46.8981C27.8435 46.7657 28.0231 46.6913 28.2105 46.6913H40.3443C40.85 46.6913 41.3351 46.4904 41.6927 46.1327C42.0503 45.7751 42.2512 45.2901 42.2512 44.7843C42.2512 44.2786 42.0503 43.7935 41.6927 43.4359C41.3351 43.0783 40.85 42.8774 40.3443 42.8774H21.1618C20.9745 42.8774 20.7949 42.803 20.6624 42.6705C20.53 42.5381 20.4556 42.3584 20.4556 42.1711C20.4556 41.9838 20.53 41.8042 20.6624 41.6717C20.7949 41.5393 20.9745 41.4648 21.1618 41.4648H40.3443C40.7802 41.4648 41.2118 41.5507 41.6146 41.7175C42.0173 41.8843 42.3833 42.1289 42.6915 42.4371C42.9997 42.7453 43.2443 43.1113 43.4111 43.514C43.5779 43.9168 43.6638 44.3484 43.6638 44.7843C43.6638 45.2203 43.5779 45.6519 43.4111 46.0547C43.2443 46.4574 42.9997 46.8233 42.6915 47.1316C42.3833 47.4398 42.0173 47.6843 41.6146 47.8511C41.2118 48.018 40.7802 48.1038 40.3443 48.1038Z" fill="#3F3B3C"/>
<path d="M19.1492 64.1699C18.6185 64.1661 18.1109 63.9528 17.7366 63.5766L6.07603 51.9301C5.70677 51.5527 5.5 51.0456 5.5 50.5176C5.5 49.9896 5.70677 49.4825 6.07603 49.105L7.77109 47.41C8.58397 46.5996 9.68497 46.1445 10.8328 46.1445C11.9806 46.1445 13.0816 46.5996 13.8945 47.41L22.278 55.7582C22.6809 56.1597 23.0007 56.6369 23.2188 57.1623C23.437 57.6877 23.5493 58.251 23.5493 58.8199C23.5493 59.3888 23.437 59.952 23.2188 60.4774C23.0007 61.0028 22.6809 61.48 22.278 61.8816L20.5829 63.5766C20.3951 63.7655 20.1716 63.9151 19.9255 64.017C19.6794 64.1188 19.4155 64.1708 19.1492 64.1699ZM10.8363 47.5159C10.0609 47.5173 9.31734 47.8244 8.76694 48.3705L7.07188 50.0656C6.95673 50.1808 6.89204 50.337 6.89204 50.4999C6.89204 50.6628 6.95673 50.8191 7.07188 50.9343L18.7184 62.5808C18.8353 62.6926 18.9909 62.755 19.1527 62.755C19.3145 62.755 19.4701 62.6926 19.5871 62.5808L21.2821 60.8857C21.8294 60.3375 22.1368 59.5945 22.1368 58.8199C22.1368 58.0452 21.8294 57.3022 21.2821 56.754L12.8986 48.3705C12.3504 47.8254 11.6094 47.5184 10.8363 47.5159Z" fill="#3F3B3C"/>
<path d="M21.727 57.2093L12.5454 47.9853L12.8279 47.5121C12.9762 47.2649 16.5429 41.4664 21.1973 41.4664C21.3846 41.4664 21.5642 41.5408 21.6967 41.6733C21.8291 41.8057 21.9036 41.9854 21.9036 42.1727C21.9036 42.36 21.8291 42.5396 21.6967 42.6721C21.5642 42.8046 21.3846 42.879 21.1973 42.879C18.0049 42.879 15.2363 46.488 14.3393 47.7876L21.8329 55.3094L23.7187 53.8121H38.9954C39.3796 53.813 39.7602 53.7379 40.1154 53.5913C40.4705 53.4446 40.7931 53.2292 41.0648 52.9575L53.5094 40.4988C53.8789 40.1486 54.098 39.6686 54.1204 39.16C54.1428 38.6513 53.9668 38.1539 53.6294 37.7726C53.4555 37.5858 53.2459 37.4357 53.013 37.3314C52.7801 37.2271 52.5286 37.1705 52.2734 37.1652C52.0113 37.1539 51.7499 37.1984 51.5063 37.2958C51.2628 37.3932 51.0428 37.5413 50.8608 37.7302L43.6568 44.9342C43.6169 45.7881 43.2498 46.5938 42.6318 47.1842C42.0137 47.7746 41.1921 48.1045 40.3373 48.1054C40.15 48.1054 39.9704 48.031 39.8379 47.8985C39.7055 47.7661 39.6311 47.5864 39.6311 47.3991C39.6311 47.2118 39.7055 47.0322 39.8379 46.8997C39.9704 46.7673 40.15 46.6928 40.3373 46.6928C40.8437 46.6929 41.3295 46.4922 41.6882 46.1347C42.047 45.7773 42.2495 45.2923 42.2513 44.7859V44.3692L49.872 36.7273C50.1825 36.4073 50.5566 36.1558 50.9702 35.9892C51.3838 35.8225 51.8277 35.7443 52.2734 35.7597C52.7175 35.7634 53.1563 35.8573 53.563 36.0358C53.9698 36.2143 54.336 36.4736 54.6394 36.7979C55.2235 37.451 55.5339 38.3038 55.5062 39.1795C55.4786 40.0552 55.1151 40.8867 54.4911 41.5017L42.0606 53.9322C41.6611 54.3403 41.1843 54.6648 40.658 54.8867C40.1318 55.1086 39.5666 55.2235 38.9954 55.2246H24.2131L21.727 57.2093Z" fill="#3F3B3C"/>
<path d="M55.0703 34.2543L53.7142 33.8659C53.9617 32.993 54.1574 32.1062 54.3005 31.2103L55.713 31.4292C55.558 32.3834 55.3433 33.327 55.0703 34.2543ZM55.9673 28.5194L54.5547 28.4699C54.5547 28.2086 54.5547 27.9473 54.5547 27.693C54.5547 26.9867 54.5547 26.3511 54.4911 25.7155L55.9037 25.6166C55.9531 26.3228 55.9743 26.9797 55.9743 27.693C55.9814 27.9685 55.9814 28.2439 55.9673 28.5194ZM54.1521 23.0034C53.9768 22.1102 53.7408 21.23 53.4459 20.3689L54.7878 19.9099C55.0978 20.8339 55.3456 21.7778 55.5294 22.735L54.1521 23.0034ZM52.3935 17.8617C51.9775 17.0483 51.5056 16.2648 50.981 15.5168L52.1463 14.7188C52.6989 15.5189 53.1991 16.3541 53.6436 17.219L52.3935 17.8617Z" fill="#3F3B3C"/>
<path d="M13.9579 43.3576C13.3222 42.625 12.7325 41.8536 12.1922 41.0481L13.3576 40.257C13.8712 41.0134 14.4277 41.7397 15.0244 42.4324L13.9579 43.3576ZM10.7373 38.5408C10.2969 37.6769 9.90781 36.7878 9.57192 35.8781L10.8997 35.3908C11.2107 36.2491 11.5764 37.0866 11.9944 37.8981L10.7373 38.5408ZM8.74558 33.0883C8.5324 32.1422 8.37207 31.1849 8.26531 30.2209L9.67786 30.0725C9.77516 30.98 9.9261 31.8809 10.1299 32.7705L8.74558 33.0883ZM9.55073 27.3322H8.13818C8.15436 26.3635 8.22746 25.3966 8.35713 24.4365L9.76968 24.6272C9.64436 25.5238 9.57126 26.427 9.55073 27.3322ZM10.257 21.9221L8.8939 21.5619C9.14243 20.6233 9.44907 19.701 9.81206 18.8004L11.1328 19.323C10.799 20.1711 10.5183 21.0392 10.2923 21.9221H10.257ZM12.2911 16.8511L11.0551 16.1448C11.5229 15.2949 12.0418 14.4741 12.6089 13.687L13.7531 14.5133C13.2319 15.2638 12.7555 16.0444 12.3264 16.8511H12.2911ZM15.4905 12.4157L14.4876 11.434C15.1551 10.7233 15.8625 10.0512 16.6064 9.42107L17.4893 10.5229C16.7957 11.112 16.1399 11.7441 15.5258 12.4157H15.4905ZM19.6505 8.8843L18.9018 7.69776C19.715 7.17972 20.5568 6.70811 21.4232 6.28521L22.0518 7.54944C21.2373 7.94435 20.4472 8.38774 19.6858 8.87724L19.6505 8.8843ZM43.0988 8.0509C42.3079 7.59541 41.4894 7.18969 40.648 6.8361L41.1919 5.53656C42.09 5.91028 42.9629 6.34202 43.8051 6.82904L43.0988 8.0509ZM24.552 6.49003L24.0859 5.15517C25.011 4.83372 25.9544 4.56723 26.911 4.35708L27.2147 5.76963C26.313 5.95403 25.4237 6.19463 24.552 6.49003ZM38.0348 5.98857C37.1541 5.75274 36.2603 5.56879 35.358 5.43768L35.5558 4.02513C36.5085 4.16308 37.4519 4.35885 38.3809 4.61134L38.0348 5.98857ZM29.8844 5.2823L29.7573 3.86975C30.722 3.77791 31.6912 3.74253 32.6601 3.76381L32.6247 5.17636C31.7194 5.15982 30.8139 5.19519 29.9126 5.2823H29.8844Z" fill="#3F3B3C"/>
<path d="M42.336 46.2619L42.2513 44.6799C42.2242 44.1927 42.0113 43.7345 41.6566 43.3995C41.3019 43.0644 40.8322 42.8781 40.3443 42.8789H21.1619C20.3321 42.8965 19.5185 43.112 18.7888 43.5075L18.358 43.7264L17.9978 43.4015C13.9426 39.7721 11.4475 34.7155 11.0341 29.2891C10.6207 23.8627 12.321 18.4865 15.7796 14.2846C19.2381 10.0828 24.1871 7.38056 29.5917 6.74296C34.9964 6.10536 40.4384 7.58175 44.7797 10.8634C44.8539 10.9196 44.9164 10.9897 44.9634 11.07C45.0105 11.1502 45.0413 11.2389 45.0541 11.3311C45.0669 11.4232 45.0614 11.517 45.038 11.607C45.0145 11.697 44.9736 11.7816 44.9175 11.8558C44.8613 11.93 44.7912 11.9924 44.7109 12.0395C44.6307 12.0865 44.542 12.1174 44.4498 12.1301C44.3577 12.1429 44.2639 12.1374 44.1739 12.114C44.0839 12.0905 43.9993 12.0496 43.9251 11.9935C40.5154 9.39751 36.3452 7.99751 32.0597 8.0101C28.1154 8.01223 24.2627 9.1993 21.0011 11.4174C17.7396 13.6355 15.2196 16.7823 13.768 20.4498C12.3164 24.1172 12.0001 28.1363 12.8601 31.9857C13.72 35.8351 15.7167 39.3374 18.5911 42.0384C19.3987 41.6703 20.2744 41.4755 21.1619 41.4663H40.3443C40.959 41.4656 41.5618 41.6356 42.0855 41.9574C42.6093 42.2791 43.0334 42.7399 43.3107 43.2885L49.1374 37.4618C51.0116 34.1873 51.9049 30.443 51.7108 26.6751C51.5167 22.9072 50.2434 19.2745 48.0427 16.2099C47.9882 16.1345 47.9491 16.0489 47.9277 15.9583C47.9064 15.8676 47.9031 15.7737 47.9182 15.6818C47.9333 15.5899 47.9664 15.5019 48.0157 15.4228C48.0649 15.3438 48.1293 15.2752 48.2052 15.2212C48.3571 15.1132 48.5456 15.0697 48.7295 15.1001C48.9134 15.1306 49.0778 15.2325 49.1869 15.3836C51.5619 18.684 52.9322 22.6007 53.1326 26.6619C53.3331 30.7231 52.3553 34.7557 50.3169 38.274L50.2039 38.4223L42.336 46.2619Z" fill="#3F3B3C"/>
<path d="M40.3443 48.1038H28.2105C28.0231 48.1038 27.8435 48.0294 27.7111 47.897C27.5786 47.7645 27.5042 47.5849 27.5042 47.3976C27.5042 47.2102 27.5786 47.0306 27.7111 46.8981C27.8435 46.7657 28.0231 46.6913 28.2105 46.6913H40.3443C40.85 46.6913 41.3351 46.4904 41.6927 46.1327C42.0503 45.7751 42.2512 45.2901 42.2512 44.7843C42.2512 44.2786 42.0503 43.7935 41.6927 43.4359C41.3351 43.0783 40.85 42.8774 40.3443 42.8774H21.1618C20.9745 42.8774 20.7949 42.803 20.6624 42.6705C20.53 42.5381 20.4556 42.3584 20.4556 42.1711C20.4556 41.9838 20.53 41.8042 20.6624 41.6717C20.7949 41.5393 20.9745 41.4648 21.1618 41.4648H40.3443C40.7802 41.4648 41.2118 41.5507 41.6146 41.7175C42.0173 41.8843 42.3833 42.1289 42.6915 42.4371C42.9997 42.7453 43.2443 43.1113 43.4111 43.514C43.5779 43.9168 43.6638 44.3484 43.6638 44.7843C43.6638 45.2203 43.5779 45.6519 43.4111 46.0547C43.2443 46.4574 42.9997 46.8233 42.6915 47.1316C42.3833 47.4398 42.0173 47.6843 41.6146 47.8511C41.2118 48.018 40.7802 48.1038 40.3443 48.1038Z" fill="#3F3B3C"/>
<path d="M19.1492 64.1699C18.6185 64.1661 18.1109 63.9528 17.7366 63.5766L6.07603 51.9301C5.70677 51.5527 5.5 51.0456 5.5 50.5176C5.5 49.9896 5.70677 49.4825 6.07603 49.105L7.77109 47.41C8.58397 46.5996 9.68497 46.1445 10.8328 46.1445C11.9806 46.1445 13.0816 46.5996 13.8945 47.41L22.278 55.7582C22.6809 56.1597 23.0007 56.6369 23.2188 57.1623C23.437 57.6877 23.5493 58.251 23.5493 58.8199C23.5493 59.3888 23.437 59.952 23.2188 60.4774C23.0007 61.0028 22.6809 61.48 22.278 61.8816L20.5829 63.5766C20.3951 63.7655 20.1716 63.9151 19.9255 64.017C19.6794 64.1188 19.4155 64.1708 19.1492 64.1699ZM10.8363 47.5159C10.0609 47.5173 9.31734 47.8244 8.76694 48.3705L7.07188 50.0656C6.95673 50.1808 6.89204 50.337 6.89204 50.4999C6.89204 50.6628 6.95673 50.8191 7.07188 50.9343L18.7184 62.5808C18.8353 62.6926 18.9909 62.755 19.1527 62.755C19.3145 62.755 19.4701 62.6926 19.5871 62.5808L21.2821 60.8857C21.8294 60.3375 22.1368 59.5945 22.1368 58.8199C22.1368 58.0452 21.8294 57.3022 21.2821 56.754L12.8986 48.3705C12.3504 47.8254 11.6094 47.5184 10.8363 47.5159Z" fill="#3F3B3C"/>
<path d="M21.727 57.2093L12.5454 47.9853L12.8279 47.5121C12.9762 47.2649 16.5429 41.4664 21.1973 41.4664C21.3846 41.4664 21.5642 41.5408 21.6967 41.6733C21.8291 41.8057 21.9036 41.9854 21.9036 42.1727C21.9036 42.36 21.8291 42.5396 21.6967 42.6721C21.5642 42.8046 21.3846 42.879 21.1973 42.879C18.0049 42.879 15.2363 46.488 14.3393 47.7876L21.8329 55.3094L23.7187 53.8121H38.9954C39.3796 53.813 39.7602 53.7379 40.1154 53.5913C40.4705 53.4446 40.7931 53.2292 41.0648 52.9575L53.5094 40.4988C53.8789 40.1486 54.098 39.6686 54.1204 39.16C54.1428 38.6513 53.9668 38.1539 53.6294 37.7726C53.4555 37.5858 53.2459 37.4357 53.013 37.3314C52.7801 37.2271 52.5286 37.1705 52.2734 37.1652C52.0113 37.1539 51.7499 37.1984 51.5063 37.2958C51.2628 37.3932 51.0428 37.5413 50.8608 37.7302L43.6568 44.9342C43.6169 45.7881 43.2498 46.5938 42.6318 47.1842C42.0137 47.7746 41.1921 48.1045 40.3373 48.1054C40.15 48.1054 39.9704 48.031 39.8379 47.8985C39.7055 47.7661 39.6311 47.5864 39.6311 47.3991C39.6311 47.2118 39.7055 47.0322 39.8379 46.8997C39.9704 46.7673 40.15 46.6928 40.3373 46.6928C40.8437 46.6929 41.3295 46.4922 41.6882 46.1347C42.047 45.7773 42.2495 45.2923 42.2513 44.7859V44.3692L49.872 36.7273C50.1825 36.4073 50.5566 36.1558 50.9702 35.9892C51.3838 35.8225 51.8277 35.7443 52.2734 35.7597C52.7175 35.7634 53.1563 35.8573 53.563 36.0358C53.9698 36.2143 54.336 36.4736 54.6394 36.7979C55.2235 37.451 55.5339 38.3038 55.5062 39.1795C55.4786 40.0552 55.1151 40.8867 54.4911 41.5017L42.0606 53.9322C41.6611 54.3403 41.1843 54.6648 40.658 54.8867C40.1318 55.1086 39.5666 55.2235 38.9954 55.2246H24.2131L21.727 57.2093Z" fill="#3F3B3C"/>
</g>
<defs>
<clipPath id="clip0_4857_77325">
<rect width="64" height="64" fill="white" transform="translate(0.5)"/>
</clipPath>
</defs>
</svg>
